<?xml version="1.0" standalone="no"?>
<!DOCTYPE svg PUBLIC "-//W3C//DTD SVG 20010904//EN"
 "http://www.w3.org/TR/2001/REC-SVG-20010904/DTD/svg10.dtd">
<svg version="1.0" xmlns="http://www.w3.org/2000/svg"
 width="706.000000pt" height="173.000000pt" viewBox="0 0 706.000000 173.000000"
 preserveAspectRatio="xMidYMid meet">

<g transform="translate(0.000000,173.000000) scale(0.100000,-0.100000)"
fill="#000000" stroke="none">
<path d="M623 1705 c-73 -37 -122 -111 -153 -232 l-11 -43 -74 0 c-68 0 -77
-2 -109 -30 -33 -29 -37 -30 -98 -24 l-63 6 -1 -203 c-1 -213 -18 -392 -83
-849 -16 -113 -29 -205 -28 -205 1 -1 86 -28 190 -62 l187 -61 48 16 c39 13
105 16 377 17 304 0 338 2 434 23 145 32 141 29 141 115 0 99 -15 215 -51 387
-44 213 -59 369 -59 597 l0 203 -52 0 c-29 0 -69 3 -89 6 l-36 6 -7 79 c-8 95
-36 176 -74 211 -51 48 -83 58 -215 63 -117 4 -126 3 -174 -20z m117 -14 c0
-4 -8 -19 -19 -32 -27 -36 -66 -117 -87 -181 l-18 -58 -53 0 c-67 0 -73 11
-43 93 39 105 82 157 149 177 36 11 71 12 71 1z m234 -39 c44 -42 68 -105 74
-199 5 -94 10 -89 -82 -77 l-46 7 0 77 c0 85 -17 153 -49 198 -11 16 -18 32
-15 34 12 12 91 -15 118 -40z m-117 -42 c19 -36 23 -59 23 -132 l0 -88 -40 0
c-22 0 -71 5 -110 12 -55 10 -70 16 -70 29 0 41 54 161 92 204 37 42 42 45 61
32 12 -8 32 -33 44 -57z m-251 -370 c8 0 17 7 20 15 10 24 33 17 40 -12 6 -20
2 -31 -16 -45 -27 -22 -39 -23 -68 -2 -24 17 -29 43 -9 63 10 10 13 9 15 -3 2
-9 10 -16 18 -16z m444 10 c0 -14 27 -12 34 3 3 8 9 6 20 -7 31 -39 -26 -82
-73 -56 -20 10 -29 49 -14 63 10 11 33 8 33 -3z m42 -240 c44 -13 88 -62 87
-98 0 -31 -81 -105 -87 -80 -17 68 -35 97 -69 113 -156 74 -384 -177 -409
-451 -8 -87 7 -145 51 -192 l34 -37 85 0 c81 0 88 2 175 47 61 31 91 42 91 33
0 -17 -37 -43 -115 -83 -85 -42 -159 -62 -233 -62 -119 0 -181 59 -190 180 -7
97 12 179 65 289 105 219 356 385 515 341z"/>
<path d="M1813 935 c-28 -14 -72 -44 -97 -66 -83 -73 -141 -237 -134 -376 3
-64 7 -76 31 -100 61 -61 194 -24 321 89 31 27 56 58 56 68 0 16 -13 9 -67
-32 -76 -57 -119 -78 -161 -78 -40 0 -73 39 -79 93 -5 44 -5 45 43 78 112 76
203 150 223 182 13 22 21 51 21 81 0 86 -60 109 -157 61z m45 -47 c7 -7 12
-31 12 -55 0 -35 -6 -50 -36 -83 -44 -48 -132 -115 -141 -106 -10 10 17 106
48 168 39 77 85 108 117 76z"/>
<path d="M2750 953 c-37 -14 -161 -105 -187 -138 -17 -20 -43 -73 -59 -118
-25 -70 -29 -97 -29 -183 0 -86 3 -105 19 -123 46 -51 137 -35 277 49 97 59
112 72 107 93 -2 13 -17 7 -71 -27 -126 -80 -185 -84 -220 -16 -14 27 -16 48
-12 95 19 184 95 322 164 300 18 -6 41 -45 41 -70 0 -20 4 -19 51 11 37 23 41
28 35 57 -12 60 -63 90 -116 70z"/>
<path d="M3250 941 c-65 -25 -150 -82 -191 -127 -64 -72 -109 -197 -109 -302
0 -144 94 -188 244 -113 142 71 206 150 246 306 25 99 25 151 0 192 -37 62
-105 78 -190 44z m74 -84 c17 -24 21 -42 20 -110 0 -91 -22 -160 -75 -241 -52
-79 -132 -101 -180 -50 -22 24 -24 34 -24 122 0 104 15 152 73 236 55 80 143
100 186 43z"/>
<path d="M3621 903 c-95 -52 -122 -75 -108 -89 3 -3 19 2 36 10 16 9 41 16 56
16 36 0 34 -20 -29 -262 -29 -115 -50 -208 -45 -208 5 0 26 7 48 16 46 18 42
9 97 222 l37 143 76 45 c94 55 111 56 111 9 0 -32 -59 -273 -94 -387 -8 -27
-12 -48 -7 -48 4 0 28 7 52 15 l45 15 44 180 44 179 74 42 c41 24 84 43 96 43
18 1 21 -4 19 -40 -1 -22 -18 -108 -37 -191 -40 -167 -44 -214 -20 -234 14
-12 25 -9 78 20 89 49 175 114 176 133 0 13 -11 10 -57 -18 -32 -19 -67 -33
-78 -32 -32 5 -24 90 23 258 56 203 57 209 37 217 -19 7 -85 -23 -208 -94 -43
-24 -80 -43 -82 -41 -2 2 3 30 10 63 9 36 11 63 5 69 -13 13 -57 -8 -179 -81
-57 -35 -105 -62 -108 -60 -2 2 3 33 11 67 23 100 18 101 -123 23z"/>
<path d="M4555 934 c-100 -53 -165 -96 -165 -110 0 -17 8 -17 40 1 14 8 37 14
53 15 22 0 27 -4 27 -22 0 -13 -25 -119 -54 -235 -30 -117 -50 -213 -45 -213
5 0 26 7 48 16 45 18 37 -1 103 243 l33 123 70 44 c88 54 115 57 115 11 0 -30
-46 -223 -89 -369 -11 -38 -16 -68 -12 -68 4 0 28 7 52 15 l45 15 43 178 c27
107 51 182 60 189 39 30 153 84 167 79 20 -8 19 -20 -26 -207 -44 -185 -49
-239 -24 -260 14 -12 25 -9 74 18 89 48 179 116 180 135 0 14 -11 11 -59 -18
-33 -20 -68 -34 -78 -32 -30 6 -20 95 31 285 26 95 45 177 41 183 -3 5 -13 10
-21 10 -17 0 -111 -46 -207 -102 -38 -22 -70 -38 -72 -36 -2 2 2 31 10 66 7
35 9 65 4 68 -16 9 -51 -7 -168 -78 -62 -38 -116 -67 -118 -65 -2 3 1 24 6 48
14 60 14 99 -2 99 -6 0 -35 -12 -62 -26z"/>
<path d="M5510 936 c-64 -34 -137 -101 -162 -149 -54 -107 -87 -267 -69 -334
26 -94 112 -115 231 -56 78 39 180 127 180 154 0 17 -9 13 -60 -26 -91 -70
-159 -96 -205 -79 -23 9 -45 58 -45 101 1 37 4 40 93 101 155 106 197 154 197
228 0 79 -71 106 -160 60z m48 -48 c20 -20 14 -82 -11 -119 -22 -32 -139 -129
-157 -129 -4 0 -4 18 1 39 34 151 119 257 167 209z"/>
<path d="M5860 906 c-80 -40 -106 -59 -108 -75 l-4 -22 41 20 c47 24 77 27 84
7 7 -17 -20 -137 -72 -321 -21 -77 -37 -141 -36 -143 2 -2 26 4 53 14 l50 18
53 203 c51 196 55 205 86 224 52 32 99 36 134 10 21 -16 30 -18 33 -9 2 7 11
35 20 62 13 39 13 51 4 58 -34 21 -81 4 -169 -59 l-49 -35 6 29 c10 52 9 67
-6 70 -8 2 -62 -21 -120 -51z"/>
<path d="M6395 922 c-136 -84 -157 -109 -201 -239 -21 -61 -27 -99 -28 -171
l-1 -94 34 -30 c31 -27 39 -30 82 -25 83 10 299 132 299 169 0 24 -4 23 -56
-12 -57 -40 -143 -80 -171 -80 -81 0 -104 93 -63 255 23 91 54 150 93 179 26
19 30 19 54 6 16 -9 30 -28 35 -48 l9 -32 39 22 c34 20 40 28 40 56 0 42 -38
82 -77 82 -15 0 -55 -17 -88 -38z"/>
<path d="M6864 924 c-32 -19 -73 -49 -90 -66 -71 -68 -124 -218 -124 -350 0
-72 2 -80 29 -110 27 -30 34 -33 88 -33 46 1 71 8 119 34 78 41 174 126 174
152 0 17 -8 14 -57 -24 -72 -56 -133 -87 -171 -87 -40 0 -73 39 -79 92 l-5 44
120 87 c140 101 164 129 170 202 4 44 1 56 -17 74 -33 33 -86 28 -157 -15z
m64 -36 c16 -16 15 -73 -3 -107 -16 -32 -86 -96 -135 -125 l-33 -19 6 41 c23
139 116 259 165 210z"/>
<path d="M2147 678 c-43 -58 -45 -56 61 -52 95 4 97 4 124 36 15 18 28 36 28
41 0 4 -43 7 -94 7 l-95 0 -24 -32z"/>
</g>
</svg>
