<?xml version="1.0" standalone="no"?>
<!DOCTYPE svg PUBLIC "-//W3C//DTD SVG 20010904//EN"
 "http://www.w3.org/TR/2001/REC-SVG-20010904/DTD/svg10.dtd">
<svg version="1.0" xmlns="http://www.w3.org/2000/svg"
 width="601.000000pt" height="153.000000pt" viewBox="0 0 601.000000 153.000000"
 preserveAspectRatio="xMidYMid meet">

<g transform="translate(0.000000,153.000000) scale(0.100000,-0.100000)"
fill="#000000" stroke="none">
<path d="M700 1521 c-86 -27 -146 -90 -186 -192 l-26 -69 -80 0 c-72 0 -85 -3
-115 -26 -31 -23 -38 -25 -102 -18 l-69 6 -5 -218 c-5 -225 -29 -425 -90 -759
-14 -72 -23 -131 -22 -133 1 -1 93 -27 204 -58 202 -55 202 -55 279 -44 42 6
221 15 397 20 285 9 398 16 515 36 73 12 69 3 44 117 -12 56 -30 152 -39 212
-9 61 -25 162 -36 225 -24 140 -33 351 -22 483 l9 97 -47 0 c-25 0 -67 3 -92
6 -44 6 -47 8 -52 43 -22 143 -60 220 -125 252 -39 19 -295 34 -340 20z m90
-21 c0 -5 -20 -39 -45 -75 -24 -36 -52 -88 -62 -115 -20 -57 -34 -65 -104 -55
-48 7 -50 8 -44 33 25 102 103 194 179 211 56 12 76 13 76 1z m230 -15 c56
-29 97 -109 107 -210 l6 -65 -39 0 c-21 0 -56 3 -76 6 l-38 7 0 79 c0 80 -11
114 -51 167 -10 13 -16 27 -14 32 7 10 72 0 105 -16z m-119 -32 c37 -42 50
-83 47 -151 l-3 -67 -95 1 c-52 1 -107 7 -122 13 -27 10 -27 11 -14 49 25 71
54 118 96 155 43 40 57 40 91 0z m-187 -346 c26 -41 -44 -83 -88 -53 -43 28
-29 81 14 54 18 -11 23 -10 31 5 12 21 28 18 43 -6z m414 1 c8 -8 15 -8 27 2
12 10 18 10 30 0 19 -16 19 -29 -2 -52 -20 -22 -61 -23 -85 -1 -21 19 -23 34
-6 51 15 15 21 15 36 0z m-37 -218 c39 -11 73 -43 82 -77 4 -17 -4 -30 -29
-53 -41 -35 -54 -38 -54 -9 0 55 -39 88 -103 89 -155 1 -310 -217 -310 -436 0
-171 112 -218 298 -125 44 22 82 38 84 35 11 -10 -39 -48 -104 -79 -170 -80
-293 -72 -349 25 -40 68 -18 230 47 355 62 117 221 247 333 274 53 12 64 12
105 1z"/>
<path d="M1768 818 c-71 -48 -106 -103 -133 -203 -23 -92 -20 -168 9 -202 47
-54 150 -28 255 64 61 53 72 91 14 45 -66 -51 -107 -72 -144 -72 -43 0 -59 16
-66 68 l-5 38 98 70 c106 76 135 113 137 170 2 76 -69 86 -165 22z m82 -60 c0
-33 -7 -45 -44 -81 -24 -23 -57 -50 -74 -59 l-30 -18 9 43 c31 143 139 233
139 115z"/>
<path d="M2488 814 c-37 -25 -76 -58 -86 -72 -53 -75 -88 -250 -63 -311 19
-44 58 -56 123 -37 62 18 198 102 198 122 0 18 -7 18 -38 -5 -86 -60 -156 -76
-187 -41 -28 31 -17 166 20 248 15 35 36 67 46 72 33 18 59 11 71 -17 7 -16
13 -29 14 -31 1 -2 16 4 33 13 35 18 40 47 15 83 -25 35 -69 28 -146 -24z"/>
<path d="M2924 830 c-88 -44 -129 -83 -165 -156 -27 -54 -33 -81 -37 -147 -4
-72 -2 -85 17 -109 12 -15 36 -30 54 -33 66 -13 212 67 264 144 32 48 64 156
64 220 1 50 -2 58 -30 83 -42 37 -90 37 -167 -2z m86 -45 c33 -35 37 -104 11
-183 -40 -118 -86 -167 -152 -160 -77 7 -90 133 -27 258 51 101 120 136 168
85z"/>
<path d="M3248 814 c-43 -25 -78 -52 -78 -60 0 -13 4 -13 30 1 73 38 75 22 20
-197 -23 -88 -39 -162 -37 -164 2 -3 20 2 39 10 35 15 35 17 69 147 36 143 41
151 119 193 53 29 70 27 70 -5 0 -21 -49 -218 -74 -301 -16 -53 -14 -55 36
-34 35 15 35 16 68 156 l34 141 70 39 c47 26 74 36 81 29 6 -6 4 -37 -8 -89
-9 -44 -25 -115 -34 -157 -17 -79 -13 -133 9 -133 15 0 133 71 173 104 43 35
25 43 -28 12 -94 -55 -99 -30 -41 182 39 142 42 172 16 172 -9 0 -62 -25 -116
-55 -55 -30 -101 -53 -104 -51 -2 2 1 21 7 43 23 82 8 83 -123 3 -55 -33 -100
-59 -102 -57 -2 1 1 20 6 42 21 90 10 93 -102 29z"/>
<path d="M3964 820 c-71 -40 -102 -65 -92 -76 3 -3 22 3 42 12 62 30 64 16 14
-183 -25 -98 -45 -179 -44 -180 1 -1 18 3 38 9 l36 11 36 136 c40 148 45 157
134 203 71 38 72 11 6 -228 -19 -70 -33 -128 -31 -130 2 -2 19 2 39 8 l36 11
32 131 c18 72 38 140 45 151 17 28 118 80 138 72 19 -7 19 -13 -24 -192 -33
-138 -34 -144 -15 -171 14 -19 15 -19 48 0 76 42 158 102 158 114 0 10 -13 6
-44 -12 -25 -14 -54 -26 -67 -26 -20 0 -21 4 -17 44 3 24 22 107 43 185 21 77
35 144 31 148 -10 10 -66 -12 -155 -63 -43 -24 -81 -44 -84 -44 -3 0 -1 15 4
32 13 46 11 78 -4 78 -12 0 -132 -66 -191 -105 l-29 -19 7 39 c12 71 11 79 -4
82 -8 2 -47 -15 -86 -37z"/>
<path d="M4749 832 c-107 -69 -163 -180 -164 -324 0 -67 3 -80 23 -100 30 -30
91 -30 152 0 62 30 149 103 149 125 1 15 -7 12 -41 -16 -75 -60 -139 -82 -175
-59 -14 9 -33 56 -33 81 0 10 36 42 91 81 105 74 136 107 145 155 15 83 -60
112 -147 57z m66 -43 c9 -28 -12 -82 -43 -111 -41 -38 -92 -71 -99 -64 -3 3 2
34 13 68 31 103 110 168 129 107z"/>
<path d="M5048 820 c-72 -37 -96 -55 -86 -66 3 -2 22 3 42 11 20 9 42 13 48 9
15 -9 5 -66 -41 -234 -22 -79 -39 -146 -37 -147 1 -2 20 3 42 10 l39 14 31
119 c17 65 37 138 43 162 19 69 96 103 148 67 21 -15 22 -14 36 32 7 27 12 51
10 56 -9 16 -61 5 -104 -21 -24 -15 -50 -32 -58 -36 -11 -7 -12 -2 -7 28 9 48
-5 47 -106 -4z"/>
<path d="M5445 812 c-81 -56 -115 -108 -140 -214 -39 -171 0 -238 117 -204 62
18 198 102 198 122 0 18 -7 18 -38 -5 -87 -60 -156 -76 -187 -41 -41 46 9 290
66 320 33 18 59 11 71 -17 7 -16 13 -29 14 -31 1 -2 16 4 33 13 35 18 40 47
15 83 -25 36 -69 29 -149 -26z"/>
<path d="M5831 819 c-71 -47 -105 -99 -133 -198 -41 -150 -14 -236 74 -236 55
0 123 34 188 92 60 54 70 91 13 45 -84 -66 -144 -87 -179 -64 -17 11 -34 48
-34 76 0 20 17 37 91 87 50 34 101 76 114 93 54 73 38 146 -34 146 -29 0 -55
-11 -100 -41z m83 -35 c10 -40 -18 -89 -76 -133 -30 -23 -58 -41 -63 -41 -13
0 5 72 31 128 37 76 95 101 108 46z"/>
<path d="M2071 634 c-12 -15 -21 -31 -21 -35 0 -5 34 -7 75 -5 66 3 77 6 95
29 11 14 20 28 20 31 0 3 -33 6 -74 6 -69 0 -76 -2 -95 -26z"/>
</g>
</svg>
